<svg xmlns="http://www.w3.org/2000/svg" viewBox="0 0 256 256">
<defs>
<radialGradient id="halo" cx="50%" cy="50%" r="50%">
<stop offset="0%" stop-color="#ffd66b" stop-opacity=".5"/>
<stop offset="100%" stop-color="#ffd66b" stop-opacity="0"/>
</radialGradient>
<radialGradient id="star" cx="50%" cy="50%" r="50%">
<stop offset="0%" stop-color="#fffdf4"/>
<stop offset="45%" stop-color="#ffe9ad"/>
<stop offset="100%" stop-color="#c9971d"/>
</radialGradient>
<radialGradient id="core" cx="50%" cy="50%" r="50%">
<stop offset="0%" stop-color="#ffffff"/>
<stop offset="100%" stop-color="#fff3cf" stop-opacity="0"/>
</radialGradient>
</defs>
<g transform="translate(128 128)">
<circle r="100" fill="url(#halo)">
<animate attributeName="opacity" values=".55;1;.55" dur="7s" repeatCount="indefinite" calcMode="spline" keySplines=".42 0 .58 1;.42 0 .58 1"/>
</circle>
<g opacity=".55" transform="rotate(45)">
<animateTransform attributeName="transform" type="rotate" values="45;53;45" dur="7s" repeatCount="indefinite" calcMode="spline" keySplines=".42 0 .58 1;.42 0 .58 1" additive="replace"/>
<path fill="url(#star)" d="M0,-64 C5,-20 20,-5 64,0 C20,5 5,20 0,64 C-5,20 -20,5 -64,0 C-20,-5 -5,-20 0,-64 Z"/>
</g>
<g>
<animateTransform attributeName="transform" type="scale" values="1;1.07;1" dur="7s" repeatCount="indefinite" calcMode="spline" keySplines=".42 0 .58 1;.42 0 .58 1"/>
<path fill="url(#star)" d="M0,-78 C6,-24 24,-6 78,0 C24,6 6,24 0,78 C-6,24 -24,6 -78,0 C-24,-6 -6,-24 0,-78 Z"/>
<circle r="19" fill="url(#core)">
<animate attributeName="opacity" values=".7;1;.7" dur="7s" repeatCount="indefinite" calcMode="spline" keySplines=".42 0 .58 1;.42 0 .58 1"/>
</circle>
</g>
</g>
</svg>
